<svg xmlns="http://www.w3.org/2000/svg" viewBox="0 0 128 128" width="128" height="128" shape-rendering="crispEdges">
  <!-- 128x128 highly detailed pixel raccoon - purple team cyberpunk mascot -->
  
  <!-- ===================== EARS ===================== -->
  <!-- Left ear -->
  <rect x="24" y="4" width="2" height="2" fill="#2d3748"/>
  <rect x="23" y="6" width="4" height="1" fill="#374151"/>
  <rect x="22" y="7" width="6" height="2" fill="#4b5563"/>
  <rect x="21" y="9" width="8" height="3" fill="#6b7280"/>
  <rect x="22" y="12" width="6" height="2" fill="#9ca3af"/>
  <!-- Left ear inner -->
  <rect x="24" y="8" width="3" height="3" fill="#6d28d9"/>
  <rect x="25" y="9" width="2" height="2" fill="#7c3aed"/>
  <rect x="25" y="9" width="1" height="1" fill="#a855f7"/>
  <!-- Left ear fur tufts -->
  <rect x="21" y="11" width="1" height="2" fill="#4b5563"/>
  <rect x="28" y="10" width="1" height="2" fill="#4b5563"/>
  
  <!-- Right ear -->
  <rect x="102" y="4" width="2" height="2" fill="#2d3748"/>
  <rect x="101" y="6" width="4" height="1" fill="#374151"/>
  <rect x="100" y="7" width="6" height="2" fill="#4b5563"/>
  <rect x="99" y="9" width="8" height="3" fill="#6b7280"/>
  <rect x="100" y="12" width="6" height="2" fill="#9ca3af"/>
  <!-- Right ear inner -->
  <rect x="101" y="8" width="3" height="3" fill="#6d28d9"/>
  <rect x="101" y="9" width="2" height="2" fill="#7c3aed"/>
  <rect x="102" y="9" width="1" height="1" fill="#a855f7"/>
  <!-- Right ear fur tufts -->
  <rect x="99" y="10" width="1" height="2" fill="#4b5563"/>
  <rect x="107" y="11" width="1" height="2" fill="#4b5563"/>

  <!-- ===================== HEAD ===================== -->
  <!-- Head top outline -->
  <rect x="30" y="7" width="68" height="1" fill="#2d3748"/>
  <rect x="28" y="8" width="72" height="1" fill="#374151"/>
  <!-- Head fill main -->
  <rect x="26" y="9" width="76" height="4" fill="#9ca3af"/>
  <rect x="24" y="13" width="80" height="6" fill="#9ca3af"/>
  <rect x="24" y="19" width="80" height="6" fill="#9ca3af"/>
  <rect x="26" y="25" width="76" height="4" fill="#9ca3af"/>
  <rect x="28" y="29" width="72" height="3" fill="#9ca3af"/>
  <rect x="30" y="32" width="68" height="2" fill="#9ca3af"/>
  <rect x="34" y="34" width="60" height="2" fill="#9ca3af"/>
  <!-- Head top highlight -->
  <rect x="36" y="9" width="56" height="1" fill="#c9cfd6"/>
  <rect x="32" y="10" width="64" height="1" fill="#b4bcc7"/>
  <rect x="30" y="11" width="68" height="1" fill="#b4bcc7"/>
  <rect x="40" y="9" width="20" height="2" fill="#d1d5db"/>
  <!-- Forehead fur texture -->
  <rect x="38" y="12" width="2" height="1" fill="#b4bcc7"/>
  <rect x="50" y="11" width="3" height="1" fill="#c9cfd6"/>
  <rect x="76" y="12" width="2" height="1" fill="#b4bcc7"/>
  <rect x="88" y="11" width="2" height="1" fill="#c9cfd6"/>
  <!-- Head side shading -->
  <rect x="24" y="13" width="2" height="10" fill="#6b7280"/>
  <rect x="102" y="13" width="2" height="10" fill="#6b7280"/>
  <rect x="26" y="13" width="1" height="8" fill="#7f8a96"/>
  <rect x="101" y="13" width="1" height="8" fill="#7f8a96"/>
  
  <!-- ===================== MASK ===================== -->
  <!-- Main dark mask band -->
  <rect x="24" y="15" width="80" height="10" fill="#1f2937"/>
  <!-- Mask top edge blend -->
  <rect x="26" y="14" width="76" height="1" fill="#374151"/>
  <!-- Mask bottom edge blend -->
  <rect x="26" y="25" width="76" height="1" fill="#374151"/>
  <!-- Mask depth shading -->
  <rect x="24" y="16" width="80" height="1" fill="#111827"/>
  <rect x="24" y="17" width="2" height="6" fill="#111827"/>
  <rect x="102" y="17" width="2" height="6" fill="#111827"/>
  <!-- Mask pattern/fur texture -->
  <rect x="34" y="16" width="1" height="1" fill="#2d3748"/>
  <rect x="42" y="18" width="1" height="1" fill="#2d3748"/>
  <rect x="85" y="16" width="1" height="1" fill="#2d3748"/>
  <rect x="92" y="18" width="1" height="1" fill="#2d3748"/>
  <!-- White patches between mask and eyes -->
  <rect x="28" y="14" width="6" height="2" fill="#b4bcc7"/>
  <rect x="94" y="14" width="6" height="2" fill="#b4bcc7"/>
  
  <!-- ===================== EYES ===================== -->
  <!-- Left eye outer glow -->
  <rect x="33" y="16" width="14" height="9" fill="#0c4a6e"/>
  <rect x="32" y="17" width="1" height="7" fill="#164e63"/>
  <rect x="47" y="17" width="1" height="7" fill="#164e63"/>
  <rect x="33" y="15" width="14" height="1" fill="#164e63"/>
  <rect x="33" y="25" width="14" height="1" fill="#164e63"/>
  <!-- Left eye white/bright -->
  <rect x="35" y="17" width="10" height="7" fill="#0891b2"/>
  <rect x="36" y="18" width="8" height="5" fill="#06b6d4"/>
  <rect x="37" y="18" width="6" height="5" fill="#22d3ee"/>
  <!-- Left eye iris detail -->
  <rect x="38" y="19" width="4" height="3" fill="#67e8f9"/>
  <rect x="39" y="19" width="2" height="2" fill="#a5f3fc"/>
  <!-- Left eye pupil -->
  <rect x="40" y="20" width="3" height="3" fill="#0e7490"/>
  <rect x="41" y="21" width="2" height="2" fill="#064e3b"/>
  <rect x="41" y="21" width="1" height="1" fill="#042f2e"/>
  <!-- Left eye specular highlight -->
  <rect x="36" y="17" width="2" height="2" fill="#cffafe"/>
  <rect x="36" y="17" width="1" height="1" fill="#ecfeff"/>
  <!-- Left eye bottom lid -->
  <rect x="35" y="23" width="10" height="1" fill="#155e75"/>
  
  <!-- Right eye outer glow -->
  <rect x="81" y="16" width="14" height="9" fill="#0c4a6e"/>
  <rect x="80" y="17" width="1" height="7" fill="#164e63"/>
  <rect x="95" y="17" width="1" height="7" fill="#164e63"/>
  <rect x="81" y="15" width="14" height="1" fill="#164e63"/>
  <rect x="81" y="25" width="14" height="1" fill="#164e63"/>
  <!-- Right eye white/bright -->
  <rect x="83" y="17" width="10" height="7" fill="#0891b2"/>
  <rect x="84" y="18" width="8" height="5" fill="#06b6d4"/>
  <rect x="85" y="18" width="6" height="5" fill="#22d3ee"/>
  <!-- Right eye iris detail -->
  <rect x="86" y="19" width="4" height="3" fill="#67e8f9"/>
  <rect x="87" y="19" width="2" height="2" fill="#a5f3fc"/>
  <!-- Right eye pupil -->
  <rect x="87" y="20" width="3" height="3" fill="#0e7490"/>
  <rect x="88" y="21" width="2" height="2" fill="#064e3b"/>
  <rect x="88" y="21" width="1" height="1" fill="#042f2e"/>
  <!-- Right eye specular highlight -->
  <rect x="84" y="17" width="2" height="2" fill="#cffafe"/>
  <rect x="84" y="17" width="1" height="1" fill="#ecfeff"/>
  <!-- Right eye bottom lid -->
  <rect x="83" y="23" width="10" height="1" fill="#155e75"/>
  
  <!-- ===================== NOSE AND SNOUT ===================== -->
  <!-- Snout mound -->
  <rect x="46" y="25" width="36" height="6" fill="#d1d5db"/>
  <rect x="48" y="24" width="32" height="2" fill="#e5e7eb"/>
  <rect x="44" y="27" width="40" height="4" fill="#d1d5db"/>
  <rect x="46" y="31" width="36" height="2" fill="#c9cfd6"/>
  <!-- Snout highlight -->
  <rect x="50" y="25" width="28" height="2" fill="#e5e7eb"/>
  <rect x="52" y="25" width="8" height="1" fill="#f3f4f6"/>
  <!-- Nose -->
  <rect x="55" y="25" width="18" height="5" fill="#111827"/>
  <rect x="56" y="26" width="16" height="3" fill="#1f2937"/>
  <rect x="57" y="26" width="6" height="2" fill="#374151"/>
  <!-- Nose shine -->
  <rect x="58" y="26" width="3" height="1" fill="#4b5563"/>
  <rect x="58" y="26" width="2" height="1" fill="#6b7280"/>
  <!-- Nostrils -->
  <rect x="58" y="28" width="3" height="1" fill="#0a0a0a"/>
  <rect x="67" y="28" width="3" height="1" fill="#0a0a0a"/>
  <!-- Mouth -->
  <rect x="62" y="31" width="4" height="1" fill="#4b5563"/>
  <rect x="60" y="32" width="2" height="1" fill="#6b7280"/>
  <rect x="66" y="32" width="2" height="1" fill="#6b7280"/>
  <rect x="58" y="33" width="4" height="1" fill="#9ca3af"/>
  <rect x="66" y="33" width="4" height="1" fill="#9ca3af"/>
  <!-- Whiskers -->
  <rect x="36" y="27" width="6" height="1" fill="#9ca3af"/>
  <rect x="34" y="29" width="8" height="1" fill="#9ca3af"/>
  <rect x="36" y="31" width="6" height="1" fill="#9ca3af"/>
  <rect x="86" y="27" width="6" height="1" fill="#9ca3af"/>
  <rect x="86" y="29" width="8" height="1" fill="#9ca3af"/>
  <rect x="86" y="31" width="6" height="1" fill="#9ca3af"/>
  <!-- Cheek fur -->
  <rect x="26" y="26" width="8" height="4" fill="#b4bcc7"/>
  <rect x="27" y="27" width="6" height="3" fill="#c9cfd6"/>
  <rect x="94" y="26" width="8" height="4" fill="#b4bcc7"/>
  <rect x="95" y="27" width="6" height="3" fill="#c9cfd6"/>
  
  <!-- Chin -->
  <rect x="48" y="33" width="32" height="2" fill="#b4bcc7"/>
  <rect x="52" y="35" width="24" height="1" fill="#9ca3af"/>
  
  <!-- ===================== NECK ===================== -->
  <rect x="40" y="36" width="48" height="3" fill="#6b7280"/>
  <rect x="42" y="36" width="44" height="1" fill="#4b5563"/>
  <rect x="44" y="37" width="40" height="1" fill="#4b5563"/>

  <!-- ===================== BODY ===================== -->
  <rect x="30" y="39" width="68" height="30" fill="#4b5563"/>
  <!-- Body outline -->
  <rect x="29" y="40" width="1" height="28" fill="#2d3748"/>
  <rect x="98" y="40" width="1" height="28" fill="#2d3748"/>
  <rect x="30" y="39" width="68" height="1" fill="#374151"/>
  
  <!-- ===================== PURPLE HOODIE ===================== -->
  <!-- Hoodie main panels -->
  <rect x="30" y="39" width="12" height="28" fill="#6d28d9"/>
  <rect x="86" y="39" width="12" height="28" fill="#6d28d9"/>
  <!-- Hoodie collar -->
  <rect x="42" y="39" width="44" height="4" fill="#7c3aed"/>
  <rect x="44" y="39" width="40" height="2" fill="#6d28d9"/>
  <rect x="46" y="39" width="36" height="1" fill="#581c87"/>
  <!-- Collar fold detail -->
  <rect x="42" y="41" width="3" height="2" fill="#a855f7"/>
  <rect x="83" y="41" width="3" height="2" fill="#a855f7"/>
  <!-- Hoodie highlights (light reflection) -->
  <rect x="32" y="41" width="2" height="22" fill="#7c3aed"/>
  <rect x="34" y="42" width="1" height="18" fill="#a855f7"/>
  <rect x="35" y="44" width="1" height="14" fill="#c084fc"/>
  <rect x="94" y="41" width="2" height="22" fill="#7c3aed"/>
  <rect x="93" y="42" width="1" height="18" fill="#a855f7"/>
  <rect x="92" y="44" width="1" height="14" fill="#c084fc"/>
  <!-- Hoodie shadow folds -->
  <rect x="30" y="42" width="1" height="20" fill="#581c87"/>
  <rect x="31" y="44" width="1" height="16" fill="#4c1d95"/>
  <rect x="97" y="42" width="1" height="20" fill="#581c87"/>
  <rect x="96" y="44" width="1" height="16" fill="#4c1d95"/>
  <!-- Hoodie pocket -->
  <rect x="30" y="56" width="10" height="6" fill="#581c87"/>
  <rect x="31" y="57" width="8" height="4" fill="#6d28d9"/>
  <rect x="88" y="56" width="10" height="6" fill="#581c87"/>
  <rect x="89" y="57" width="8" height="4" fill="#6d28d9"/>
  <!-- Zipper -->
  <rect x="63" y="43" width="2" height="24" fill="#581c87"/>
  <rect x="63" y="43" width="1" height="24" fill="#4c1d95"/>
  <!-- Zipper teeth -->
  <rect x="64" y="44" width="1" height="1" fill="#a855f7"/>
  <rect x="64" y="46" width="1" height="1" fill="#a855f7"/>
  <rect x="64" y="48" width="1" height="1" fill="#a855f7"/>
  <rect x="64" y="50" width="1" height="1" fill="#a855f7"/>
  <rect x="64" y="52" width="1" height="1" fill="#a855f7"/>
  <rect x="64" y="54" width="1" height="1" fill="#a855f7"/>
  <rect x="64" y="56" width="1" height="1" fill="#a855f7"/>
  <rect x="64" y="58" width="1" height="1" fill="#a855f7"/>
  <rect x="64" y="60" width="1" height="1" fill="#a855f7"/>
  <rect x="64" y="62" width="1" height="1" fill="#a855f7"/>
  <rect x="64" y="64" width="1" height="1" fill="#a855f7"/>
  <!-- Zipper pull -->
  <rect x="65" y="43" width="2" height="2" fill="#c084fc"/>
  <rect x="65" y="43" width="1" height="1" fill="#e9d5ff"/>
  
  <!-- Chest/belly area -->
  <rect x="42" y="43" width="21" height="24" fill="#6b7280"/>
  <rect x="65" y="43" width="21" height="24" fill="#6b7280"/>
  <rect x="46" y="45" width="36" height="20" fill="#9ca3af"/>
  <rect x="48" y="47" width="32" height="16" fill="#b4bcc7"/>
  <rect x="50" y="49" width="28" height="12" fill="#c9cfd6"/>
  <!-- Chest fur texture -->
  <rect x="52" y="50" width="2" height="1" fill="#d1d5db"/>
  <rect x="58" y="48" width="3" height="1" fill="#d1d5db"/>
  <rect x="68" y="50" width="2" height="1" fill="#d1d5db"/>
  <rect x="74" y="48" width="2" height="1" fill="#d1d5db"/>
  <rect x="56" y="52" width="1" height="2" fill="#d1d5db"/>
  <rect x="70" y="53" width="1" height="2" fill="#d1d5db"/>
  
  <!-- ===================== ARMS ===================== -->
  <!-- Left arm -->
  <rect x="18" y="42" width="11" height="20" fill="#6b7280"/>
  <rect x="17" y="43" width="1" height="18" fill="#4b5563"/>
  <rect x="16" y="44" width="1" height="16" fill="#374151"/>
  <rect x="18" y="42" width="11" height="2" fill="#4b5563"/>
  <!-- Left arm highlights -->
  <rect x="22" y="44" width="2" height="14" fill="#9ca3af"/>
  <rect x="23" y="46" width="1" height="10" fill="#b4bcc7"/>
  <!-- Left arm sleeve -->
  <rect x="18" y="42" width="11" height="6" fill="#7c3aed"/>
  <rect x="19" y="42" width="2" height="5" fill="#a855f7"/>
  <rect x="20" y="43" width="1" height="3" fill="#c084fc"/>
  <rect x="18" y="47" width="11" height="1" fill="#581c87"/>
  <!-- Left arm shadow -->
  <rect x="28" y="44" width="1" height="16" fill="#374151"/>
  
  <!-- Right arm -->
  <rect x="99" y="42" width="11" height="20" fill="#6b7280"/>
  <rect x="110" y="43" width="1" height="18" fill="#4b5563"/>
  <rect x="111" y="44" width="1" height="16" fill="#374151"/>
  <rect x="99" y="42" width="11" height="2" fill="#4b5563"/>
  <!-- Right arm highlights -->
  <rect x="104" y="44" width="2" height="14" fill="#9ca3af"/>
  <rect x="104" y="46" width="1" height="10" fill="#b4bcc7"/>
  <!-- Right arm sleeve -->
  <rect x="99" y="42" width="11" height="6" fill="#7c3aed"/>
  <rect x="107" y="42" width="2" height="5" fill="#a855f7"/>
  <rect x="108" y="43" width="1" height="3" fill="#c084fc"/>
  <rect x="99" y="47" width="11" height="1" fill="#581c87"/>
  <!-- Right arm shadow -->
  <rect x="99" y="44" width="1" height="16" fill="#374151"/>
  
  <!-- ===================== HANDS/PAWS ===================== -->
  <!-- Left hand -->
  <rect x="16" y="61" width="12" height="6" fill="#9ca3af"/>
  <rect x="15" y="62" width="1" height="4" fill="#6b7280"/>
  <rect x="16" y="61" width="12" height="1" fill="#b4bcc7"/>
  <rect x="17" y="62" width="10" height="2" fill="#b4bcc7"/>
  <!-- Left fingers -->
  <rect x="15" y="66" width="3" height="3" fill="#9ca3af"/>
  <rect x="18" y="66" width="3" height="3" fill="#b4bcc7"/>
  <rect x="21" y="66" width="3" height="3" fill="#9ca3af"/>
  <rect x="24" y="66" width="3" height="2" fill="#b4bcc7"/>
  <!-- Left claws -->
  <rect x="15" y="69" width="1" height="2" fill="#e5e7eb"/>
  <rect x="18" y="69" width="1" height="2" fill="#e5e7eb"/>
  <rect x="21" y="69" width="1" height="2" fill="#e5e7eb"/>
  <rect x="24" y="68" width="1" height="2" fill="#e5e7eb"/>
  <!-- Pad detail -->
  <rect x="18" y="64" width="2" height="2" fill="#6b7280"/>
  <rect x="22" y="64" width="2" height="2" fill="#6b7280"/>
  
  <!-- Right hand -->
  <rect x="100" y="61" width="12" height="6" fill="#9ca3af"/>
  <rect x="112" y="62" width="1" height="4" fill="#6b7280"/>
  <rect x="100" y="61" width="12" height="1" fill="#b4bcc7"/>
  <rect x="101" y="62" width="10" height="2" fill="#b4bcc7"/>
  <!-- Right fingers -->
  <rect x="100" y="66" width="3" height="3" fill="#9ca3af"/>
  <rect x="103" y="66" width="3" height="3" fill="#b4bcc7"/>
  <rect x="106" y="66" width="3" height="3" fill="#9ca3af"/>
  <rect x="109" y="66" width="3" height="2" fill="#b4bcc7"/>
  <!-- Right claws -->
  <rect x="101" y="69" width="1" height="2" fill="#e5e7eb"/>
  <rect x="104" y="69" width="1" height="2" fill="#e5e7eb"/>
  <rect x="107" y="69" width="1" height="2" fill="#e5e7eb"/>
  <rect x="110" y="68" width="1" height="2" fill="#e5e7eb"/>
  <!-- Pad detail -->
  <rect x="104" y="64" width="2" height="2" fill="#6b7280"/>
  <rect x="108" y="64" width="2" height="2" fill="#6b7280"/>
  
  <!-- ===================== SHIELD ===================== -->
  <!-- Shield outer frame -->
  <rect x="34" y="67" width="60" height="28" fill="#4c1d95"/>
  <rect x="36" y="95" width="56" height="3" fill="#4c1d95"/>
  <rect x="38" y="98" width="52" height="2" fill="#4c1d95"/>
  <rect x="42" y="100" width="44" height="2" fill="#4c1d95"/>
  <rect x="46" y="102" width="36" height="2" fill="#4c1d95"/>
  <rect x="50" y="104" width="28" height="2" fill="#4c1d95"/>
  <rect x="54" y="106" width="20" height="2" fill="#4c1d95"/>
  <rect x="58" y="108" width="12" height="2" fill="#4c1d95"/>
  <rect x="61" y="110" width="6" height="2" fill="#4c1d95"/>
  <rect x="63" y="112" width="2" height="1" fill="#4c1d95"/>
  <!-- Shield main fill -->
  <rect x="36" y="69" width="56" height="24" fill="#7c3aed"/>
  <rect x="38" y="93" width="52" height="3" fill="#7c3aed"/>
  <rect x="40" y="96" width="48" height="2" fill="#7c3aed"/>
  <rect x="44" y="98" width="40" height="2" fill="#7c3aed"/>
  <rect x="48" y="100" width="32" height="2" fill="#7c3aed"/>
  <rect x="52" y="102" width="24" height="2" fill="#7c3aed"/>
  <rect x="56" y="104" width="16" height="2" fill="#7c3aed"/>
  <rect x="60" y="106" width="8" height="2" fill="#7c3aed"/>
  <rect x="62" y="108" width="4" height="2" fill="#7c3aed"/>
  <!-- Shield inner bright area -->
  <rect x="40" y="72" width="48" height="18" fill="#a855f7"/>
  <rect x="42" y="90" width="44" height="3" fill="#a855f7"/>
  <rect x="44" y="93" width="40" height="2" fill="#a855f7"/>
  <rect x="48" y="95" width="32" height="2" fill="#a855f7"/>
  <rect x="52" y="97" width="24" height="2" fill="#a855f7"/>
  <rect x="56" y="99" width="16" height="2" fill="#a855f7"/>
  <!-- Shield highlight -->
  <rect x="40" y="72" width="48" height="2" fill="#c084fc"/>
  <rect x="40" y="72" width="3" height="16" fill="#c084fc"/>
  <rect x="41" y="73" width="1" height="12" fill="#e9d5ff"/>
  
  <!-- Shield emblem - cyber lock -->
  <!-- Lock body -->
  <rect x="54" y="78" width="20" height="14" fill="#4c1d95"/>
  <rect x="56" y="80" width="16" height="10" fill="#6d28d9"/>
  <rect x="58" y="82" width="12" height="6" fill="#7c3aed"/>
  <!-- Lock shackle -->
  <rect x="58" y="74" width="12" height="6" fill="#4c1d95"/>
  <rect x="60" y="74" width="8" height="2" fill="#374151"/>
  <rect x="58" y="76" width="3" height="4" fill="#4c1d95"/>
  <rect x="67" y="76" width="3" height="4" fill="#4c1d95"/>
  <rect x="60" y="76" width="8" height="2" fill="#1f2937"/>
  <!-- Keyhole -->
  <rect x="62" y="83" width="4" height="3" fill="#e9d5ff"/>
  <rect x="63" y="82" width="2" height="1" fill="#e9d5ff"/>
  <rect x="63" y="86" width="2" height="3" fill="#c084fc"/>
  <rect x="63" y="86" width="1" height="2" fill="#e9d5ff"/>
  <!-- Keyhole glow -->
  <rect x="61" y="83" width="1" height="2" fill="#c084fc"/>
  <rect x="66" y="83" width="1" height="2" fill="#c084fc"/>
  
  <!-- Shield circuit traces -->
  <rect x="42" y="76" width="10" height="1" fill="#6d28d9"/>
  <rect x="76" y="76" width="10" height="1" fill="#6d28d9"/>
  <rect x="42" y="80" width="10" height="1" fill="#6d28d9"/>
  <rect x="76" y="80" width="10" height="1" fill="#6d28d9"/>
  <rect x="42" y="84" width="10" height="1" fill="#6d28d9"/>
  <rect x="76" y="84" width="10" height="1" fill="#6d28d9"/>
  <rect x="42" y="88" width="10" height="1" fill="#6d28d9"/>
  <rect x="76" y="88" width="10" height="1" fill="#6d28d9"/>
  <!-- Circuit nodes -->
  <rect x="42" y="75" width="2" height="3" fill="#c084fc"/>
  <rect x="42" y="79" width="2" height="3" fill="#c084fc"/>
  <rect x="42" y="83" width="2" height="3" fill="#c084fc"/>
  <rect x="42" y="87" width="2" height="3" fill="#c084fc"/>
  <rect x="84" y="75" width="2" height="3" fill="#c084fc"/>
  <rect x="84" y="79" width="2" height="3" fill="#c084fc"/>
  <rect x="84" y="83" width="2" height="3" fill="#c084fc"/>
  <rect x="84" y="87" width="2" height="3" fill="#c084fc"/>
  <!-- Vertical circuit lines -->
  <rect x="46" y="73" width="1" height="18" fill="#6d28d9"/>
  <rect x="50" y="75" width="1" height="14" fill="#6d28d9"/>
  <rect x="77" y="73" width="1" height="18" fill="#6d28d9"/>
  <rect x="81" y="75" width="1" height="14" fill="#6d28d9"/>
  <!-- Glow dots on circuit -->
  <rect x="46" y="73" width="1" height="1" fill="#e9d5ff"/>
  <rect x="50" y="75" width="1" height="1" fill="#e9d5ff"/>
  <rect x="77" y="73" width="1" height="1" fill="#e9d5ff"/>
  <rect x="81" y="75" width="1" height="1" fill="#e9d5ff"/>
  <rect x="46" y="90" width="1" height="1" fill="#e9d5ff"/>
  <rect x="50" y="88" width="1" height="1" fill="#e9d5ff"/>
  <rect x="77" y="90" width="1" height="1" fill="#e9d5ff"/>
  <rect x="81" y="88" width="1" height="1" fill="#e9d5ff"/>
  
  <!-- ===================== LEGS ===================== -->
  <!-- Left leg -->
  <rect x="34" y="67" width="12" height="24" fill="#4b5563"/>
  <rect x="33" y="68" width="1" height="22" fill="#374151"/>
  <rect x="34" y="67" width="1" height="22" fill="#374151"/>
  <rect x="38" y="69" width="2" height="18" fill="#6b7280"/>
  <rect x="39" y="70" width="1" height="14" fill="#9ca3af"/>
  <!-- Right leg -->
  <rect x="82" y="67" width="12" height="24" fill="#4b5563"/>
  <rect x="94" y="68" width="1" height="22" fill="#374151"/>
  <rect x="93" y="67" width="1" height="22" fill="#374151"/>
  <rect x="88" y="69" width="2" height="18" fill="#6b7280"/>
  <rect x="88" y="70" width="1" height="14" fill="#9ca3af"/>
  
  <!-- ===================== BOOTS ===================== -->
  <!-- Left boot -->
  <rect x="30" y="91" width="16" height="8" fill="#1f2937"/>
  <rect x="29" y="93" width="1" height="4" fill="#111827"/>
  <rect x="28" y="94" width="2" height="3" fill="#1f2937"/>
  <!-- Left boot purple trim -->
  <rect x="30" y="91" width="16" height="2" fill="#581c87"/>
  <rect x="31" y="91" width="14" height="1" fill="#6d28d9"/>
  <!-- Left boot buckle -->
  <rect x="34" y="94" width="4" height="3" fill="#a855f7"/>
  <rect x="35" y="95" width="2" height="1" fill="#e9d5ff"/>
  <!-- Left boot sole -->
  <rect x="28" y="99" width="18" height="3" fill="#0a0a0a"/>
  <rect x="29" y="99" width="16" height="1" fill="#1f2937"/>
  <!-- Left boot toe detail -->
  <rect x="28" y="97" width="3" height="2" fill="#374151"/>
  
  <!-- Right boot -->
  <rect x="82" y="91" width="16" height="8" fill="#1f2937"/>
  <rect x="98" y="93" width="1" height="4" fill="#111827"/>
  <rect x="98" y="94" width="2" height="3" fill="#1f2937"/>
  <!-- Right boot purple trim -->
  <rect x="82" y="91" width="16" height="2" fill="#581c87"/>
  <rect x="83" y="91" width="14" height="1" fill="#6d28d9"/>
  <!-- Right boot buckle -->
  <rect x="90" y="94" width="4" height="3" fill="#a855f7"/>
  <rect x="91" y="95" width="2" height="1" fill="#e9d5ff"/>
  <!-- Right boot sole -->
  <rect x="82" y="99" width="18" height="3" fill="#0a0a0a"/>
  <rect x="83" y="99" width="16" height="1" fill="#1f2937"/>
  <!-- Right boot toe detail -->
  <rect x="97" y="97" width="3" height="2" fill="#374151"/>
  
  <!-- ===================== TAIL ===================== -->
  <!-- Tail segments (alternating light/dark stripes) -->
  <rect x="98" y="50" width="6" height="4" fill="#9ca3af"/>
  <rect x="103" y="48" width="6" height="4" fill="#374151"/>
  <rect x="108" y="45" width="5" height="4" fill="#9ca3af"/>
  <rect x="112" y="42" width="5" height="4" fill="#374151"/>
  <rect x="116" y="39" width="4" height="4" fill="#9ca3af"/>
  <rect x="119" y="36" width="4" height="4" fill="#374151"/>
  <rect x="121" y="33" width="3" height="4" fill="#9ca3af"/>
  <rect x="122" y="30" width="3" height="4" fill="#374151"/>
  <!-- Tail tip -->
  <rect x="123" y="28" width="2" height="3" fill="#6b7280"/>
  <rect x="124" y="27" width="1" height="2" fill="#4b5563"/>
  <!-- Tail highlights -->
  <rect x="99" y="50" width="2" height="1" fill="#b4bcc7"/>
  <rect x="109" y="45" width="2" height="1" fill="#b4bcc7"/>
  <rect x="117" y="39" width="2" height="1" fill="#b4bcc7"/>
  <rect x="122" y="33" width="1" height="1" fill="#b4bcc7"/>
  <!-- Tail ring shading -->
  <rect x="103" y="51" width="4" height="1" fill="#2d3748"/>
  <rect x="112" y="45" width="3" height="1" fill="#2d3748"/>
  <rect x="119" y="39" width="3" height="1" fill="#2d3748"/>
  
  <!-- ===================== GROUND EFFECTS ===================== -->
  <!-- Neon purple ground glow -->
  <rect x="24" y="102" width="80" height="1" fill="#7c3aed" opacity="0.5"/>
  <rect x="20" y="103" width="88" height="1" fill="#a855f7" opacity="0.35"/>
  <rect x="16" y="104" width="96" height="1" fill="#c084fc" opacity="0.2"/>
  <rect x="12" y="105" width="104" height="1" fill="#e9d5ff" opacity="0.1"/>
  <!-- Cyan eye reflection on ground -->
  <rect x="38" y="103" width="8" height="1" fill="#22d3ee" opacity="0.2"/>
  <rect x="82" y="103" width="8" height="1" fill="#22d3ee" opacity="0.2"/>
  
  <!-- ===================== AMBIENT PARTICLES ===================== -->
  <!-- Floating purple particles -->
  <rect x="8" y="20" width="2" height="2" fill="#a855f7" opacity="0.6"/>
  <rect x="5" y="40" width="1" height="1" fill="#c084fc" opacity="0.4"/>
  <rect x="10" y="55" width="2" height="2" fill="#7c3aed" opacity="0.5"/>
  <rect x="3" y="70" width="1" height="1" fill="#a855f7" opacity="0.3"/>
  <rect x="120" y="15" width="2" height="2" fill="#a855f7" opacity="0.6"/>
  <rect x="125" y="35" width="1" height="1" fill="#c084fc" opacity="0.4"/>
  <rect x="118" y="60" width="2" height="2" fill="#7c3aed" opacity="0.5"/>
  <rect x="126" y="80" width="1" height="1" fill="#a855f7" opacity="0.3"/>
  <!-- Cyan particles -->
  <rect x="6" y="30" width="1" height="1" fill="#22d3ee" opacity="0.4"/>
  <rect x="12" y="75" width="1" height="1" fill="#22d3ee" opacity="0.3"/>
  <rect x="122" y="50" width="1" height="1" fill="#22d3ee" opacity="0.4"/>
  <rect x="116" y="85" width="1" height="1" fill="#22d3ee" opacity="0.3"/>
</svg>
